<?xml version="1.0" standalone="no"?>
<!DOCTYPE svg PUBLIC "-//W3C//DTD SVG 20010904//EN"
 "http://www.w3.org/TR/2001/REC-SVG-20010904/DTD/svg10.dtd">
<svg version="1.0" xmlns="http://www.w3.org/2000/svg"
 width="500.000000pt" height="500.000000pt" viewBox="0 0 500.000000 500.000000"
 preserveAspectRatio="xMidYMid meet">

<g transform="translate(0.000000,500.000000) scale(0.100000,-0.100000)"
fill="#000000" stroke="none">
<path d="M2048 3576 c-111 -85 -156 -198 -108 -271 11 -16 20 -35 20 -41 0 -6
-30 -26 -66 -44 -51 -25 -83 -33 -142 -37 -99 -7 -169 7 -292 57 -55 22 -112
40 -125 40 -39 0 -65 -33 -65 -83 0 -31 -5 -45 -20 -55 -16 -10 -20 -23 -20
-67 0 -31 -10 -86 -24 -127 -37 -109 -50 -219 -37 -308 9 -68 8 -76 -9 -96
-11 -11 -20 -34 -20 -52 0 -17 -4 -34 -10 -37 -13 -8 -13 -75 0 -95 7 -11 10
-6 10 22 0 20 4 40 10 43 5 3 46 10 92 15 83 10 333 -1 808 -34 276 -20 408
-27 395 -21 -5 2 -45 11 -87 19 -317 64 -1054 108 -1176 70 -21 -6 -23 -4 -20
17 5 39 52 48 248 48 213 0 489 -19 750 -53 107 -15 254 -32 325 -40 72 -8
184 -21 250 -28 74 -8 240 -13 435 -13 288 0 326 2 440 24 69 13 155 33 193
46 l67 21 0 -37 c0 -41 -13 -55 -74 -82 l-41 -18 44 5 c86 9 125 68 102 154
-8 30 -19 46 -35 52 -16 6 -26 20 -30 43 -4 19 -19 53 -35 75 -33 45 -65 55
-286 92 -280 46 -440 88 -460 120 -3 5 -30 17 -59 25 -39 11 -75 34 -129 80
-42 36 -82 62 -90 60 -21 -9 -167 115 -167 141 0 25 -52 74 -79 74 -23 0 -61
41 -61 66 0 11 -13 33 -29 48 -25 24 -32 26 -50 16 -23 -12 -39 -6 -60 23 -24
33 -204 177 -221 177 -10 0 -37 -15 -62 -34z m152 -65 c36 -27 85 -72 109
-101 39 -47 42 -53 28 -67 -14 -14 -20 -13 -68 11 -29 14 -64 26 -78 26 -35
-1 -104 -33 -152 -71 l-39 -31 -20 44 c-23 53 -19 75 28 146 40 60 76 92 106
92 11 0 50 -22 86 -49z m45 -203 c31 -14 31 -19 0 -48 -52 -49 -17 -68 47 -25
32 21 40 23 68 13 28 -9 31 -14 27 -38 -8 -36 2 -70 19 -70 7 0 21 14 30 31
l16 31 36 -33 c20 -19 38 -35 40 -35 1 -1 -3 -13 -9 -28 -10 -20 -9 -32 1 -53
11 -26 13 -27 24 -10 33 54 32 54 61 27 22 -21 26 -31 21 -61 -4 -24 -1 -40 7
-48 19 -15 61 42 54 75 -5 29 3 30 34 6 21 -18 22 -20 6 -43 -11 -15 -17 -43
-17 -77 0 -36 -4 -54 -14 -58 -28 -11 -106 35 -179 104 -84 80 -91 84 -195
119 -92 31 -168 67 -200 97 -27 24 -52 68 -52 90 0 38 117 61 175 34z m165
-13 c0 -8 -6 -15 -14 -15 -20 0 -29 17 -14 23 22 9 28 7 28 -8z m114 -68 c12
-8 15 -16 9 -20 -12 -7 -63 29 -63 44 0 10 20 1 54 -24z m-470 -31 c15 -26 46
-57 76 -76 l51 -33 -83 -46 c-161 -90 -204 -105 -293 -105 -106 1 -292 57
-446 134 l-60 31 3 62 c3 60 4 62 31 65 17 2 65 -13 122 -38 130 -56 179 -70
261 -70 88 0 174 28 246 80 29 21 56 39 60 39 3 1 18 -19 32 -43z m300 -162
c33 -11 72 -39 126 -90 79 -74 143 -114 180 -114 24 0 24 -8 5 -120 -19 -104
-40 -171 -65 -203 -18 -22 -23 -23 -82 -16 -35 4 -112 12 -173 19 -60 6 -150
15 -200 20 -49 5 -124 12 -166 16 l-77 6 -12 46 c-32 115 -88 185 -184 227
-28 12 -127 50 -221 85 -182 66 -215 82 -215 105 0 8 2 15 4 15 2 0 73 -25
157 -56 370 -134 405 -135 624 -17 182 98 214 106 299 77z m457 -115 c8 -5 18
-4 23 1 20 20 28 9 22 -30 -5 -35 -4 -40 13 -40 11 0 28 11 38 24 15 20 21 22
41 13 21 -10 23 -16 18 -49 -5 -33 -4 -38 13 -38 11 0 29 12 40 26 21 26 22
26 41 9 11 -10 20 -22 20 -27 0 -5 -26 -42 -59 -81 -64 -79 -145 -201 -161
-241 -9 -25 -12 -26 -72 -20 -35 3 -82 7 -104 10 l-41 5 27 67 c35 87 71 244
79 350 5 57 11 86 21 92 12 7 16 2 21 -26 3 -20 12 -40 20 -45z m-1341 -63
c208 -74 273 -107 309 -160 32 -49 66 -124 59 -131 -3 -3 -122 1 -264 9 -156
9 -279 11 -309 6 -27 -4 -52 -6 -55 -3 -13 12 -2 232 14 293 23 84 23 84 54
62 15 -10 101 -44 192 -76z m1930 -95 c58 -11 136 -25 173 -31 38 -7 65 -16
60 -20 -4 -4 -89 -10 -188 -13 -196 -5 -228 -12 -292 -58 -24 -17 -51 -29 -61
-27 -30 6 -27 62 8 137 l32 68 81 -18 c45 -10 129 -27 187 -38z m368 -84 c18
-20 42 -84 42 -115 0 -19 -30 -27 -235 -62 -261 -43 -675 -64 -675 -33 0 9 42
76 73 116 l30 38 28 -30 c38 -42 78 -41 148 4 67 43 115 53 320 64 136 8 169
13 190 29 30 22 51 19 79 -11z"/>
<path d="M1032 2284 c-37 -16 -72 -67 -72 -106 0 -36 43 -84 88 -98 106 -32
135 -57 113 -99 -20 -36 -98 -38 -163 -5 -23 12 -27 11 -32 -2 -16 -41 -7 -53
52 -70 117 -34 222 16 222 107 0 55 -37 92 -118 114 -75 21 -100 45 -84 80 15
32 53 41 116 28 28 -6 52 -10 53 -9 1 0 4 13 8 27 6 23 3 28 -26 38 -43 15
-117 13 -157 -5z"/>
<path d="M1375 2238 c-3 -29 -5 -116 -3 -193 l3 -140 38 -3 37 -3 0 141 0 141
108 -138 c101 -130 109 -138 145 -141 l37 -3 0 195 0 196 -35 0 -34 0 -3 -137
-3 -138 -104 138 c-101 134 -105 137 -142 137 l-38 0 -6 -52z"/>
<path d="M1900 2095 l0 -195 140 0 140 0 0 30 0 30 -100 0 -100 0 0 55 0 54
88 3 c85 3 87 3 87 28 0 25 -2 25 -87 28 l-88 3 0 49 0 50 100 0 100 0 0 30 0
30 -140 0 -140 0 0 -195z"/>
<path d="M2447 2283 c-9 -15 -147 -366 -147 -375 0 -4 13 -8 30 -8 25 0 33 7
50 40 l21 41 87 -3 87 -3 18 -37 c14 -32 22 -38 47 -38 19 0 30 5 30 14 0 8
-31 95 -69 193 l-69 178 -40 3 c-22 2 -42 -1 -45 -5z m77 -161 c14 -40 26 -77
26 -83 0 -5 -29 -9 -65 -9 -36 0 -65 1 -65 3 0 4 46 136 55 160 11 25 19 13
49 -71z"/>
<path d="M2805 2278 c-3 -8 -4 -95 -3 -193 l3 -180 35 0 35 0 3 65 c3 59 20
100 41 100 4 0 35 -38 70 -85 63 -85 63 -85 108 -85 l45 0 -33 43 c-19 23 -58
73 -87 110 l-54 69 88 83 89 84 -45 1 c-44 0 -48 -3 -130 -85 l-85 -86 -5 83
-5 83 -33 3 c-20 2 -34 -2 -37 -10z"/>
<path d="M3260 2095 l0 -195 140 0 140 0 0 30 0 30 -100 0 -100 0 0 55 0 54
87 3 c77 3 88 5 91 22 6 28 -15 36 -100 36 l-78 0 0 50 0 49 98 3 c96 3 97 3
97 28 l0 25 -137 3 -138 3 0 -196z"/>
<path d="M3690 2096 l0 -196 35 0 34 0 3 63 c3 61 3 62 32 62 25 0 34 -9 65
-60 33 -54 40 -60 74 -63 20 -2 37 0 37 4 0 3 -16 32 -35 64 -19 32 -35 62
-35 66 0 5 13 15 28 22 35 15 52 49 52 103 0 51 -21 91 -57 109 -15 7 -74 15
-130 18 l-103 4 0 -196z m200 114 c24 -24 26 -67 4 -98 -13 -19 -24 -22 -75
-22 l-59 0 0 70 0 70 55 0 c42 0 60 -5 75 -20z"/>
<path d="M1758 1764 c-33 -17 -58 -62 -58 -101 0 -53 45 -93 120 -107 53 -9
80 -32 80 -67 0 -23 -6 -32 -27 -40 -34 -13 -108 -4 -141 17 -27 18 -27 18
-36 -19 -6 -25 -3 -29 31 -44 51 -21 149 -21 190 0 35 18 63 62 63 97 0 56
-39 89 -145 121 -22 6 -46 16 -52 22 -16 12 -17 49 -1 65 14 14 97 16 132 2
21 -8 27 -6 36 10 5 10 10 23 10 28 0 31 -154 43 -202 16z"/>
<path d="M2117 1773 c-4 -3 -7 -89 -7 -190 l0 -183 35 0 35 0 0 55 0 55 53 1
c115 1 172 52 165 147 -5 62 -30 93 -87 111 -41 12 -183 15 -194 4z m188 -78
c14 -13 25 -36 25 -50 0 -14 -11 -37 -25 -50 -19 -20 -34 -25 -75 -25 l-50 0
0 75 0 75 50 0 c41 0 56 -5 75 -25z"/>
<path d="M2599 1760 c-133 -70 -144 -270 -18 -344 40 -23 135 -32 183 -16 169
56 182 297 19 365 -50 21 -140 18 -184 -5z m187 -74 c52 -60 50 -152 -6 -208
-25 -24 -36 -28 -85 -28 -51 0 -60 3 -91 34 -31 31 -34 40 -34 90 0 104 44
149 139 143 44 -3 59 -9 77 -31z"/>
<path d="M2977 1774 c-4 -4 -7 -18 -7 -30 0 -21 5 -23 58 -26 l57 -3 3 -157
c3 -165 5 -173 51 -161 19 5 21 13 23 162 l3 156 58 3 c57 3 58 4 55 30 l-3
27 -146 3 c-80 1 -148 -1 -152 -4z"/>
<path d="M950 1595 c0 -13 38 -15 285 -15 247 0 285 2 285 15 0 13 -38 15
-285 15 -247 0 -285 -2 -285 -15z"/>
<path d="M3432 1598 c4 -10 71 -14 281 -16 242 -2 277 0 277 13 0 13 -37 15
-281 15 -220 0 -280 -3 -277 -12z"/>
</g>
</svg>
